# Blender v2.79 (sub 0) OBJ File: ''
# www.blender.org
o Torus
v 7.000000 2.165063 0.000000
v 6.267949 1.250000 0.000000
v 6.940114 2.165063 -0.913683
v 6.214326 1.250000 -0.818131
v 6.761481 2.165063 -1.811733
v 6.054374 1.250000 -1.622264
v 6.467157 2.165063 -2.678784
v 5.790830 1.250000 -2.398640
v 6.062177 2.165063 -3.500001
v 5.428203 1.250000 -3.133975
v 5.553474 2.165063 -4.261329
v 4.972699 1.250000 -3.815685
v 4.949747 2.165063 -4.949748
v 4.432109 1.250000 -4.432110
v 4.261331 2.165063 -5.553473
v 3.815686 1.250000 -4.972697
v 3.500000 2.165063 -6.062178
v 3.133974 1.250000 -5.428204
v 2.678786 2.165063 -6.467156
v 2.398642 1.250000 -5.790829
v 1.811733 2.165063 -6.761481
v 1.622265 1.250000 -6.054374
v 0.913682 2.165063 -6.940114
v 0.818130 1.250000 -6.214326
v 0.000001 2.165063 -7.000000
v 0.000000 1.250000 -6.267949
v -0.913684 2.165063 -6.940114
v -0.818132 1.250000 -6.214326
v -1.811733 2.165063 -6.761481
v -1.622264 1.250000 -6.054374
v -2.678785 2.165063 -6.467156
v -2.398641 1.250000 -5.790830
v -3.499999 2.165063 -6.062179
v -3.133974 1.250000 -5.428204
v -4.261330 2.165063 -5.553473
v -3.815686 1.250000 -4.972698
v -4.949749 2.165063 -4.949746
v -4.432110 1.250000 -4.432108
v -5.553473 2.165063 -4.261330
v -4.972698 1.250000 -3.815686
v -6.062177 2.165063 -3.500002
v -5.428202 1.250000 -3.133976
v -6.467156 2.165063 -2.678784
v -5.790830 1.250000 -2.398641
v -6.761481 2.165063 -1.811733
v -6.054374 1.250000 -1.622264
v -6.940114 2.165063 -0.913684
v -6.214326 1.250000 -0.818132
v -7.000000 2.165063 -0.000001
v -6.267949 1.250000 -0.000001
v -6.940114 2.165063 0.913684
v -6.214326 1.250000 0.818132
v -6.761481 2.165063 1.811733
v -6.054374 1.250000 1.622264
v -6.467158 2.165063 2.678782
v -5.790831 1.250000 2.398638
v -6.062179 2.165063 3.499999
v -5.428204 1.250000 3.133973
v -5.553473 2.165063 4.261330
v -4.972698 1.250000 3.815686
v -4.949749 2.165063 4.949746
v -4.432110 1.250000 4.432108
v -4.261333 2.165063 5.553471
v -3.815688 1.250000 4.972696
v -3.499999 2.165063 6.062179
v -3.133974 1.250000 5.428204
v -2.678785 2.165063 6.467156
v -2.398641 1.250000 5.790830
v -1.811736 2.165063 6.761480
v -1.622267 1.250000 6.054373
v -0.913688 2.165063 6.940114
v -0.818135 1.250000 6.214325
v 0.000001 2.165063 7.000000
v 0.000000 1.250000 6.267949
v 0.913682 2.165063 6.940114
v 0.818130 1.250000 6.214326
v 1.811730 2.165063 6.761481
v 1.622262 1.250000 6.054375
v 2.678786 2.165063 6.467156
v 2.398642 1.250000 5.790829
v 3.500000 2.165063 6.062178
v 3.133974 1.250000 5.428204
v 4.261328 2.165063 5.553474
v 3.815684 1.250000 4.972699
v 4.949745 2.165063 4.949750
v 4.432107 1.250000 4.432112
v 5.553474 2.165063 4.261329
v 4.972699 1.250000 3.815685
v 6.062177 2.165063 3.500001
v 5.428203 1.250000 3.133975
v 6.467155 2.165063 2.678787
v 5.790829 1.250000 2.398643
v 6.761481 2.165063 1.811731
v 6.054374 1.250000 1.622263
v 6.940114 2.165063 0.913683
v 6.214326 1.250000 0.818131
vn -0.7798 0.6239 0.0511
vn -0.7665 0.6239 0.1525
vn -0.7400 0.6239 0.2512
vn -0.7009 0.6239 0.3457
vn -0.6498 0.6239 0.4342
vn -0.5876 0.6239 0.5153
vn -0.5153 0.6239 0.5876
vn -0.4342 0.6239 0.6498
vn -0.3457 0.6239 0.7009
vn -0.2512 0.6239 0.7400
vn -0.1525 0.6239 0.7665
vn -0.0511 0.6239 0.7798
vn 0.0511 0.6239 0.7798
vn 0.1525 0.6239 0.7665
vn 0.2512 0.6239 0.7400
vn 0.3457 0.6239 0.7009
vn 0.4342 0.6239 0.6498
vn 0.5153 0.6239 0.5876
vn 0.5876 0.6239 0.5153
vn 0.6498 0.6239 0.4342
vn 0.7009 0.6239 0.3457
vn 0.7400 0.6239 0.2512
vn 0.7665 0.6239 0.1525
vn 0.7798 0.6239 0.0511
vn 0.7798 0.6239 -0.0511
vn 0.7665 0.6239 -0.1525
vn 0.7400 0.6239 -0.2512
vn 0.7009 0.6239 -0.3457
vn 0.6498 0.6239 -0.4342
vn 0.5876 0.6239 -0.5153
vn 0.5153 0.6239 -0.5876
vn 0.4342 0.6239 -0.6498
vn 0.3457 0.6239 -0.7009
vn 0.2512 0.6239 -0.7400
vn 0.1525 0.6239 -0.7665
vn 0.0511 0.6239 -0.7798
vn -0.0511 0.6239 -0.7798
vn -0.1525 0.6239 -0.7665
vn -0.2512 0.6239 -0.7400
vn -0.3457 0.6239 -0.7009
vn -0.4342 0.6239 -0.6498
vn -0.5153 0.6239 -0.5876
vn -0.5876 0.6239 -0.5153
vn -0.6498 0.6239 -0.4342
vn -0.7009 0.6239 -0.3457
vn -0.7400 0.6239 -0.2512
vn -0.7665 0.6239 -0.1525
vn -0.7798 0.6239 -0.0511
s off
f 3//1 2//1 1//1
f 3//2 6//2 4//2
f 5//3 8//3 6//3
f 7//4 10//4 8//4
f 9//5 12//5 10//5
f 13//6 12//6 11//6
f 13//7 16//7 14//7
f 15//8 18//8 16//8
f 19//9 18//9 17//9
f 19//10 22//10 20//10
f 23//11 22//11 21//11
f 23//12 26//12 24//12
f 27//13 26//13 25//13
f 29//14 28//14 27//14
f 31//15 30//15 29//15
f 33//16 32//16 31//16
f 35//17 34//17 33//17
f 37//18 36//18 35//18
f 39//19 38//19 37//19
f 41//20 40//20 39//20
f 43//21 42//21 41//21
f 45//22 44//22 43//22
f 47//23 46//23 45//23
f 49//24 48//24 47//24
f 51//25 50//25 49//25
f 51//26 54//26 52//26
f 55//27 54//27 53//27
f 57//28 56//28 55//28
f 59//29 58//29 57//29
f 61//30 60//30 59//30
f 63//31 62//31 61//31
f 63//32 66//32 64//32
f 67//33 66//33 65//33
f 67//34 70//34 68//34
f 69//35 72//35 70//35
f 73//36 72//36 71//36
f 75//37 74//37 73//37
f 77//38 76//38 75//38
f 79//39 78//39 77//39
f 81//40 80//40 79//40
f 83//41 82//41 81//41
f 83//42 86//42 84//42
f 87//43 86//43 85//43
f 89//44 88//44 87//44
f 91//45 90//45 89//45
f 93//46 92//46 91//46
f 95//47 94//47 93//47
f 1//48 96//48 95//48
f 3//1 4//1 2//1
f 3//2 5//2 6//2
f 5//3 7//3 8//3
f 7//4 9//4 10//4
f 9//5 11//5 12//5
f 13//6 14//6 12//6
f 13//7 15//7 16//7
f 15//8 17//8 18//8
f 19//9 20//9 18//9
f 19//10 21//10 22//10
f 23//11 24//11 22//11
f 23//12 25//12 26//12
f 27//13 28//13 26//13
f 29//14 30//14 28//14
f 31//15 32//15 30//15
f 33//16 34//16 32//16
f 35//17 36//17 34//17
f 37//18 38//18 36//18
f 39//19 40//19 38//19
f 41//20 42//20 40//20
f 43//21 44//21 42//21
f 45//22 46//22 44//22
f 47//23 48//23 46//23
f 49//24 50//24 48//24
f 51//25 52//25 50//25
f 51//26 53//26 54//26
f 55//27 56//27 54//27
f 57//28 58//28 56//28
f 59//29 60//29 58//29
f 61//30 62//30 60//30
f 63//31 64//31 62//31
f 63//32 65//32 66//32
f 67//33 68//33 66//33
f 67//34 69//34 70//34
f 69//35 71//35 72//35
f 73//36 74//36 72//36
f 75//37 76//37 74//37
f 77//38 78//38 76//38
f 79//39 80//39 78//39
f 81//40 82//40 80//40
f 83//41 84//41 82//41
f 83//42 85//42 86//42
f 87//43 88//43 86//43
f 89//44 90//44 88//44
f 91//45 92//45 90//45
f 93//46 94//46 92//46
f 95//47 96//47 94//47
f 1//48 2//48 96//48
