# Blender v2.79 (sub 0) OBJ File: ''
# www.blender.org
o Torus
v 8.000000 -2.500000 0.000000
v 9.000000 -2.165063 0.000000
v 7.931559 -2.500000 -1.044209
v 8.923004 -2.165063 -1.174736
v 7.727407 -2.500000 -2.070552
v 8.693333 -2.165063 -2.329371
v 7.391037 -2.500000 -3.061467
v 8.314916 -2.165063 -3.444150
v 6.928203 -2.500000 -4.000001
v 7.794228 -2.165063 -4.500001
v 6.346828 -2.500000 -4.870090
v 7.140181 -2.165063 -5.478852
v 5.656854 -2.500000 -5.656855
v 6.363960 -2.165063 -6.363961
v 4.870092 -2.500000 -6.346826
v 5.478854 -2.165063 -7.140179
v 4.000000 -2.500000 -6.928204
v 4.500000 -2.165063 -7.794229
v 3.061469 -2.500000 -7.391036
v 3.444153 -2.165063 -8.314915
v 2.070553 -2.500000 -7.727407
v 2.329372 -2.165063 -8.693333
v 1.044208 -2.500000 -7.931559
v 1.174734 -2.165063 -8.923004
v 0.000001 -2.500000 -8.000000
v 0.000001 -2.165063 -9.000000
v -1.044211 -2.500000 -7.931559
v -1.174737 -2.165063 -8.923003
v -2.070551 -2.500000 -7.727407
v -2.329370 -2.165063 -8.693333
v -3.061468 -2.500000 -7.391036
v -3.444152 -2.165063 -8.314916
v -3.999999 -2.500000 -6.928204
v -4.499999 -2.165063 -7.794230
v -4.870091 -2.500000 -6.346827
v -5.478853 -2.165063 -7.140180
v -5.656856 -2.500000 -5.656853
v -6.363963 -2.165063 -6.363959
v -6.346827 -2.500000 -4.870091
v -7.140180 -2.165063 -5.478853
v -6.928202 -2.500000 -4.000002
v -7.794228 -2.165063 -4.500002
v -7.391036 -2.500000 -3.061468
v -8.314916 -2.165063 -3.444151
v -7.727407 -2.500000 -2.070551
v -8.693333 -2.165063 -2.329370
v -7.931559 -2.500000 -1.044211
v -8.923003 -2.165063 -1.174737
v -8.000000 -2.500000 -0.000001
v -9.000000 -2.165063 -0.000001
v -7.931559 -2.500000 1.044211
v -8.923003 -2.165063 1.174737
v -7.727407 -2.500000 2.070551
v -8.693333 -2.165063 2.329370
v -7.391037 -2.500000 3.061465
v -8.314918 -2.165063 3.444148
v -6.928204 -2.500000 3.999999
v -7.794230 -2.165063 4.499999
v -6.346827 -2.500000 4.870091
v -7.140180 -2.165063 5.478853
v -5.656856 -2.500000 5.656853
v -6.363963 -2.165063 6.363959
v -4.870095 -2.500000 6.346824
v -5.478857 -2.165063 7.140177
v -3.999999 -2.500000 6.928204
v -4.499999 -2.165063 7.794230
v -3.061468 -2.500000 7.391036
v -3.444152 -2.165063 8.314916
v -2.070555 -2.500000 7.727406
v -2.329374 -2.165063 8.693332
v -1.044214 -2.500000 7.931558
v -1.174741 -2.165063 8.923003
v 0.000001 -2.500000 8.000000
v 0.000001 -2.165063 9.000000
v 1.044208 -2.500000 7.931559
v 1.174734 -2.165063 8.923004
v 2.070549 -2.500000 7.727407
v 2.329367 -2.165063 8.693334
v 3.061469 -2.500000 7.391036
v 3.444153 -2.165063 8.314915
v 4.000000 -2.500000 6.928204
v 4.500000 -2.165063 7.794229
v 4.870090 -2.500000 6.346828
v 5.478851 -2.165063 7.140182
v 5.656851 -2.500000 5.656857
v 6.363958 -2.165063 6.363965
v 6.346828 -2.500000 4.870090
v 7.140181 -2.165063 5.478852
v 6.928203 -2.500000 4.000001
v 7.794228 -2.165063 4.500001
v 7.391035 -2.500000 3.061471
v 8.314915 -2.165063 3.444154
v 7.727407 -2.500000 2.070550
v 8.693333 -2.165063 2.329369
v 7.931559 -2.500000 1.044209
v 8.923004 -2.165063 1.174736
vn 0.3175 -0.9480 -0.0208
vn 0.3121 -0.9480 -0.0621
vn 0.3013 -0.9480 -0.1023
vn 0.2854 -0.9480 -0.1407
vn 0.2646 -0.9480 -0.1768
vn 0.2392 -0.9480 -0.2098
vn 0.2098 -0.9480 -0.2392
vn 0.1768 -0.9480 -0.2646
vn 0.1407 -0.9480 -0.2854
vn 0.1023 -0.9480 -0.3013
vn 0.0621 -0.9480 -0.3121
vn 0.0208 -0.9480 -0.3175
vn -0.0208 -0.9480 -0.3175
vn -0.0621 -0.9480 -0.3121
vn -0.1023 -0.9480 -0.3013
vn -0.1407 -0.9480 -0.2854
vn -0.1768 -0.9480 -0.2646
vn -0.2098 -0.9480 -0.2392
vn -0.2392 -0.9480 -0.2098
vn -0.2646 -0.9480 -0.1768
vn -0.2854 -0.9480 -0.1407
vn -0.3013 -0.9480 -0.1023
vn -0.3121 -0.9480 -0.0621
vn -0.3175 -0.9480 -0.0208
vn -0.3175 -0.9480 0.0208
vn -0.3121 -0.9480 0.0621
vn -0.3013 -0.9480 0.1023
vn -0.2854 -0.9480 0.1407
vn -0.2646 -0.9480 0.1768
vn -0.2392 -0.9480 0.2098
vn -0.2098 -0.9480 0.2392
vn -0.1768 -0.9480 0.2646
vn -0.1407 -0.9480 0.2854
vn -0.1023 -0.9480 0.3013
vn -0.0621 -0.9480 0.3121
vn -0.0208 -0.9480 0.3175
vn 0.0208 -0.9480 0.3175
vn 0.0621 -0.9480 0.3121
vn 0.1023 -0.9480 0.3013
vn 0.1407 -0.9480 0.2854
vn 0.1768 -0.9480 0.2646
vn 0.2098 -0.9480 0.2392
vn 0.2392 -0.9480 0.2098
vn 0.2646 -0.9480 0.1768
vn 0.2854 -0.9480 0.1407
vn 0.3013 -0.9480 0.1023
vn 0.3121 -0.9480 0.0621
vn 0.3175 -0.9480 0.0208
s off
f 3//1 2//1 1//1
f 3//2 6//2 4//2
f 5//3 8//3 6//3
f 9//4 8//4 7//4
f 11//5 10//5 9//5
f 13//6 12//6 11//6
f 13//7 16//7 14//7
f 17//8 16//8 15//8
f 17//9 20//9 18//9
f 21//10 20//10 19//10
f 23//11 22//11 21//11
f 25//12 24//12 23//12
f 25//13 28//13 26//13
f 29//14 28//14 27//14
f 31//15 30//15 29//15
f 33//16 32//16 31//16
f 33//17 36//17 34//17
f 37//18 36//18 35//18
f 39//19 38//19 37//19
f 41//20 40//20 39//20
f 43//21 42//21 41//21
f 43//22 46//22 44//22
f 45//23 48//23 46//23
f 49//24 48//24 47//24
f 49//25 52//25 50//25
f 53//26 52//26 51//26
f 55//27 54//27 53//27
f 55//28 58//28 56//28
f 59//29 58//29 57//29
f 61//30 60//30 59//30
f 63//31 62//31 61//31
f 63//32 66//32 64//32
f 67//33 66//33 65//33
f 69//34 68//34 67//34
f 71//35 70//35 69//35
f 73//36 72//36 71//36
f 75//37 74//37 73//37
f 75//38 78//38 76//38
f 77//39 80//39 78//39
f 81//40 80//40 79//40
f 83//41 82//41 81//41
f 85//42 84//42 83//42
f 87//43 86//43 85//43
f 89//44 88//44 87//44
f 91//45 90//45 89//45
f 93//46 92//46 91//46
f 95//47 94//47 93//47
f 1//48 96//48 95//48
f 3//1 4//1 2//1
f 3//2 5//2 6//2
f 5//3 7//3 8//3
f 9//4 10//4 8//4
f 11//5 12//5 10//5
f 13//6 14//6 12//6
f 13//7 15//7 16//7
f 17//8 18//8 16//8
f 17//9 19//9 20//9
f 21//10 22//10 20//10
f 23//11 24//11 22//11
f 25//12 26//12 24//12
f 25//13 27//13 28//13
f 29//14 30//14 28//14
f 31//15 32//15 30//15
f 33//16 34//16 32//16
f 33//17 35//17 36//17
f 37//18 38//18 36//18
f 39//19 40//19 38//19
f 41//20 42//20 40//20
f 43//21 44//21 42//21
f 43//22 45//22 46//22
f 45//23 47//23 48//23
f 49//24 50//24 48//24
f 49//25 51//25 52//25
f 53//26 54//26 52//26
f 55//27 56//27 54//27
f 55//28 57//28 58//28
f 59//29 60//29 58//29
f 61//30 62//30 60//30
f 63//31 64//31 62//31
f 63//32 65//32 66//32
f 67//33 68//33 66//33
f 69//34 70//34 68//34
f 71//35 72//35 70//35
f 73//36 74//36 72//36
f 75//37 76//37 74//37
f 75//38 77//38 78//38
f 77//39 79//39 80//39
f 81//40 82//40 80//40
f 83//41 84//41 82//41
f 85//42 86//42 84//42
f 87//43 88//43 86//43
f 89//44 90//44 88//44
f 91//45 92//45 90//45
f 93//46 94//46 92//46
f 95//47 96//47 94//47
f 1//48 2//48 96//48
