# Blender v2.79 (sub 0) OBJ File: ''
# www.blender.org
o Torus
v 10.000000 0.000000 0.000000
v 9.732051 1.250000 0.000000
v 9.914449 0.000000 -1.305262
v 9.648792 1.250000 -1.270287
v 9.659258 0.000000 -2.588190
v 9.400439 1.250000 -2.518840
v 9.238795 0.000000 -3.826834
v 8.991243 1.250000 -3.724294
v 8.660254 0.000000 -5.000001
v 8.428203 1.250000 -4.866026
v 7.933535 0.000000 -6.087613
v 7.720956 1.250000 -5.924496
v 7.071067 0.000000 -7.071068
v 6.881598 1.250000 -6.881599
v 6.087615 0.000000 -7.933532
v 5.924499 1.250000 -7.720954
v 5.000000 0.000000 -8.660254
v 4.866025 1.250000 -8.428204
v 3.826837 0.000000 -9.238794
v 3.724297 1.250000 -8.991241
v 2.588191 0.000000 -9.659258
v 2.518840 1.250000 -9.400439
v 1.305260 0.000000 -9.914449
v 1.270286 1.250000 -9.648792
v 0.000001 0.000000 -10.000000
v 0.000001 1.250000 -9.732051
v -1.305263 0.000000 -9.914448
v -1.270289 1.250000 -9.648791
v -2.588189 0.000000 -9.659259
v -2.518839 1.250000 -9.400440
v -3.826835 0.000000 -9.238795
v -3.724295 1.250000 -8.991242
v -4.999999 0.000000 -8.660255
v -4.866024 1.250000 -8.428205
v -6.087614 0.000000 -7.933533
v -5.924497 1.250000 -7.720955
v -7.071070 0.000000 -7.071066
v -6.881601 1.250000 -6.881598
v -7.933533 0.000000 -6.087614
v -7.720955 1.250000 -5.924497
v -8.660253 0.000000 -5.000002
v -8.428202 1.250000 -4.866028
v -9.238795 0.000000 -3.826835
v -8.991242 1.250000 -3.724295
v -9.659259 0.000000 -2.588189
v -9.400440 1.250000 -2.518839
v -9.914448 0.000000 -1.305263
v -9.648791 1.250000 -1.270289
v -10.000000 0.000000 -0.000001
v -9.732051 1.250000 -0.000001
v -9.914448 0.000000 1.305263
v -9.648791 1.250000 1.270289
v -9.659259 0.000000 2.588189
v -9.400440 1.250000 2.518839
v -9.238797 0.000000 3.826831
v -8.991244 1.250000 3.724291
v -8.660255 0.000000 4.999998
v -8.428205 1.250000 4.866024
v -7.933533 0.000000 6.087614
v -7.720955 1.250000 5.924497
v -7.071070 0.000000 7.071066
v -6.881601 1.250000 6.881598
v -6.087618 0.000000 7.933530
v -5.924501 1.250000 7.720952
v -4.999999 0.000000 8.660255
v -4.866024 1.250000 8.428205
v -3.826835 0.000000 9.238795
v -3.724295 1.250000 8.991242
v -2.588194 0.000000 9.659258
v -2.518843 1.250000 9.400438
v -1.305268 0.000000 9.914448
v -1.270293 1.250000 9.648791
v 0.000001 0.000000 10.000000
v 0.000001 1.250000 9.732051
v 1.305260 0.000000 9.914449
v 1.270286 1.250000 9.648792
v 2.588186 0.000000 9.659260
v 2.518836 1.250000 9.400440
v 3.826837 0.000000 9.238794
v 3.724297 1.250000 8.991241
v 5.000000 0.000000 8.660254
v 4.866025 1.250000 8.428204
v 6.087612 0.000000 7.933535
v 5.924495 1.250000 7.720957
v 7.071064 0.000000 7.071072
v 6.881596 1.250000 6.881603
v 7.933535 0.000000 6.087613
v 7.720956 1.250000 5.924496
v 8.660254 0.000000 5.000001
v 8.428203 1.250000 4.866026
v 9.238794 0.000000 3.826838
v 8.991241 1.250000 3.724298
v 9.659259 0.000000 2.588188
v 9.400440 1.250000 2.518837
v 9.914449 0.000000 1.305262
v 9.648792 1.250000 1.270287
vn 0.9758 0.2092 -0.0640
vn 0.9591 0.2092 -0.1908
vn 0.9260 0.2092 -0.3143
vn 0.8770 0.2092 -0.4325
vn 0.8131 0.2092 -0.5433
vn 0.7352 0.2092 -0.6448
vn 0.6448 0.2092 -0.7352
vn 0.5433 0.2092 -0.8131
vn 0.4325 0.2092 -0.8770
vn 0.3143 0.2092 -0.9260
vn 0.1908 0.2092 -0.9591
vn 0.0640 0.2092 -0.9758
vn -0.0640 0.2092 -0.9758
vn -0.1908 0.2092 -0.9591
vn -0.3143 0.2092 -0.9260
vn -0.4325 0.2092 -0.8770
vn -0.5433 0.2092 -0.8131
vn -0.6448 0.2092 -0.7352
vn -0.7352 0.2092 -0.6448
vn -0.8131 0.2092 -0.5433
vn -0.8770 0.2092 -0.4325
vn -0.9260 0.2092 -0.3143
vn -0.9591 0.2092 -0.1908
vn -0.9758 0.2092 -0.0640
vn -0.9758 0.2092 0.0640
vn -0.9591 0.2092 0.1908
vn -0.9260 0.2092 0.3143
vn -0.8770 0.2092 0.4325
vn -0.8131 0.2092 0.5433
vn -0.7352 0.2092 0.6448
vn -0.6448 0.2092 0.7352
vn -0.5433 0.2092 0.8131
vn -0.4325 0.2092 0.8770
vn -0.3143 0.2092 0.9260
vn -0.1908 0.2092 0.9591
vn -0.0640 0.2092 0.9758
vn 0.0640 0.2092 0.9758
vn 0.1908 0.2092 0.9591
vn 0.3143 0.2092 0.9260
vn 0.4325 0.2092 0.8770
vn 0.5433 0.2092 0.8131
vn 0.6448 0.2092 0.7352
vn 0.7352 0.2092 0.6448
vn 0.8131 0.2092 0.5433
vn 0.8770 0.2092 0.4325
vn 0.9260 0.2092 0.3143
vn 0.9591 0.2092 0.1908
vn 0.9758 0.2092 0.0640
s off
f 3//1 2//1 1//1
f 5//2 4//2 3//2
f 5//3 8//3 6//3
f 7//4 10//4 8//4
f 11//5 10//5 9//5
f 13//6 12//6 11//6
f 15//7 14//7 13//7
f 17//8 16//8 15//8
f 17//9 20//9 18//9
f 21//10 20//10 19//10
f 23//11 22//11 21//11
f 25//12 24//12 23//12
f 27//13 26//13 25//13
f 29//14 28//14 27//14
f 31//15 30//15 29//15
f 33//16 32//16 31//16
f 35//17 34//17 33//17
f 37//18 36//18 35//18
f 39//19 38//19 37//19
f 39//20 42//20 40//20
f 43//21 42//21 41//21
f 43//22 46//22 44//22
f 47//23 46//23 45//23
f 47//24 50//24 48//24
f 51//25 50//25 49//25
f 51//26 54//26 52//26
f 55//27 54//27 53//27
f 57//28 56//28 55//28
f 59//29 58//29 57//29
f 61//30 60//30 59//30
f 61//31 64//31 62//31
f 63//32 66//32 64//32
f 67//33 66//33 65//33
f 69//34 68//34 67//34
f 71//35 70//35 69//35
f 73//36 72//36 71//36
f 73//37 76//37 74//37
f 77//38 76//38 75//38
f 79//39 78//39 77//39
f 81//40 80//40 79//40
f 81//41 84//41 82//41
f 83//42 86//42 84//42
f 85//43 88//43 86//43
f 89//44 88//44 87//44
f 91//45 90//45 89//45
f 93//46 92//46 91//46
f 93//47 96//47 94//47
f 1//48 96//48 95//48
f 3//1 4//1 2//1
f 5//2 6//2 4//2
f 5//3 7//3 8//3
f 7//4 9//4 10//4
f 11//5 12//5 10//5
f 13//6 14//6 12//6
f 15//7 16//7 14//7
f 17//8 18//8 16//8
f 17//9 19//9 20//9
f 21//10 22//10 20//10
f 23//11 24//11 22//11
f 25//12 26//12 24//12
f 27//13 28//13 26//13
f 29//14 30//14 28//14
f 31//15 32//15 30//15
f 33//16 34//16 32//16
f 35//17 36//17 34//17
f 37//18 38//18 36//18
f 39//19 40//19 38//19
f 39//20 41//20 42//20
f 43//21 44//21 42//21
f 43//22 45//22 46//22
f 47//23 48//23 46//23
f 47//24 49//24 50//24
f 51//25 52//25 50//25
f 51//26 53//26 54//26
f 55//27 56//27 54//27
f 57//28 58//28 56//28
f 59//29 60//29 58//29
f 61//30 62//30 60//30
f 61//31 63//31 64//31
f 63//32 65//32 66//32
f 67//33 68//33 66//33
f 69//34 70//34 68//34
f 71//35 72//35 70//35
f 73//36 74//36 72//36
f 73//37 75//37 76//37
f 77//38 78//38 76//38
f 79//39 80//39 78//39
f 81//40 82//40 80//40
f 81//41 83//41 84//41
f 83//42 85//42 86//42
f 85//43 87//43 88//43
f 89//44 90//44 88//44
f 91//45 92//45 90//45
f 93//46 94//46 92//46
f 93//47 95//47 96//47
f 1//48 2//48 96//48
